<svg width="24" height="18" viewBox="0 0 24 18" fill="none" xmlns="http://www.w3.org/2000/svg">
<path d="M2.82908 1.66479C2.36571 1.66479 1.98853 2.04198 1.98853 2.50535C1.98853 2.96899 2.36571 3.34618 2.82908 3.34618C3.29245 3.34618 3.66964 2.96899 3.66964 2.50535C3.66964 2.04171 3.29245 1.66479 2.82908 1.66479Z" fill="black"/>
<path d="M5.10984 1.66479C4.64647 1.66479 4.26929 2.04198 4.26929 2.50535C4.26929 2.96899 4.64647 3.34618 5.10984 3.34618C5.57348 3.34618 5.95094 2.96899 5.95094 2.50535C5.95094 2.04171 5.57376 1.66479 5.10984 1.66479Z" fill="black"/>
<path d="M7.39158 1.66479C6.92821 1.66479 6.55103 2.04198 6.55103 2.50535C6.55103 2.96899 6.92821 3.34618 7.39158 3.34618C7.85495 3.34618 8.23214 2.96899 8.23214 2.50535C8.23214 2.04171 7.85495 1.66479 7.39158 1.66479Z" fill="black"/>
<path d="M21.6027 2.09619H17.842V2.91438H21.6027V2.09619Z" fill="black"/>
<path d="M8.38045 12.6459L7.34271 13.6839L8.92891 15.2701L9.96692 14.2321C10.2547 14.3938 10.5593 14.5198 10.8781 14.6084V16.0776H13.1219V14.6084C13.4407 14.5198 13.7453 14.3938 14.0331 14.2321L15.0711 15.2701L16.6573 13.6839L15.6193 12.6459C15.781 12.3581 15.907 12.0535 15.9956 11.7344H17.4648V9.49091H15.9956C15.907 9.17181 15.781 8.86717 15.6193 8.57944L16.6573 7.5417L15.0711 5.95523L14.0331 6.99297C13.7459 6.83151 13.441 6.70579 13.1219 6.61688V5.14795H10.8781V6.61688C10.559 6.70579 10.2541 6.83151 9.96692 6.99297L8.92891 5.95523L7.34271 7.5417L8.38045 8.57944C8.21872 8.8669 8.09299 9.17154 8.00435 9.49091H6.53516V11.7344H8.00435C8.09326 12.0538 8.21899 12.3584 8.38045 12.6459ZM7.35362 10.3094H8.66627L8.73009 9.97746C8.81573 9.53318 8.98618 9.11945 9.23737 8.74799L9.4261 8.46844L8.49991 7.54225L8.92918 7.1127L9.85592 8.03916L10.1355 7.85016C10.5064 7.59952 10.9201 7.42852 11.3649 7.34261L11.6963 7.27852V5.96669H12.3037V7.27852L12.635 7.34261C13.0799 7.42852 13.4933 7.59952 13.8645 7.85016L14.1441 8.03916L15.0708 7.1127L15.5001 7.54225L14.5733 8.46844L14.7621 8.74799C15.0135 9.11999 15.1845 9.53373 15.2699 9.97746L15.3337 10.3094H16.6464V10.9165H15.3337L15.2699 11.2484C15.1845 11.6921 15.0135 12.1058 14.7623 12.4776L14.5731 12.7571L15.5001 13.6839L15.0708 14.1131L14.1441 13.1861L13.8645 13.3754C13.4928 13.6269 13.079 13.7976 12.6356 13.883L12.3037 13.9468V15.2594H11.6963V13.9468L11.3644 13.883C10.9209 13.7976 10.5072 13.6269 10.1355 13.3754L9.85592 13.1861L8.92918 14.1131L8.49991 13.6839L9.4261 12.7569L9.2371 12.4776C8.98618 12.1067 8.81573 11.6929 8.73009 11.2484L8.66627 10.9165H7.35362V10.3094Z" fill="black"/>
<path d="M12.0001 12.5141C13.0485 12.5141 13.9013 11.6613 13.9013 10.6129C13.9013 9.56428 13.0485 8.71118 12.0001 8.71118C10.9515 8.71118 10.0984 9.56428 10.0984 10.6129C10.0984 11.6613 10.9515 12.5141 12.0001 12.5141ZM12.0001 9.52937C12.5971 9.52937 13.0831 10.0154 13.0831 10.6129C13.0831 11.2099 12.5974 11.6959 12.0001 11.6959C11.4029 11.6959 10.9166 11.2102 10.9166 10.6129C10.9166 10.0157 11.4029 9.52937 12.0001 9.52937Z" fill="black"/>
<path d="M22.3579 0H1.64211C0.736645 0 0 0.736645 0 1.64211V6.87144V8.71101V9.12038V12.1049V12.514V14.3538V15.6995C0 16.6046 0.736645 17.3416 1.64211 17.3416H22.3579C23.2634 17.3416 24 16.6049 24 15.6995V14.3538V12.5142V12.1049V9.12038V8.71128V6.87144V1.64211C24.0003 0.736645 23.2636 0 22.3579 0ZM0.818191 9.60938C1.08138 9.71657 1.29656 9.92493 1.40974 10.1988C1.52047 10.4658 1.52047 10.76 1.41002 11.0273C1.29929 11.2943 1.09092 11.5027 0.824191 11.6131C0.822009 11.614 0.8201 11.6148 0.818464 11.6156V9.60938H0.818191ZM0.818191 12.4684C0.926192 12.4444 1.03283 12.4125 1.13674 12.3697C1.60584 12.1752 1.9713 11.8098 2.16548 11.3409C2.36021 10.8713 2.36021 10.3548 2.16548 9.88593C1.92439 9.30256 1.41711 8.89265 0.818191 8.76119V7.76218C2.2143 7.96182 3.2924 9.16265 3.2924 10.6133C3.2924 12.0637 2.2143 13.2645 0.818191 13.4642V12.4684ZM0.818191 14.3541V14.2908C2.66703 14.0863 4.11059 12.5156 4.11059 10.6133C4.11059 8.71046 2.66703 7.13981 0.818191 6.93553V6.87199V6.0298C3.16558 6.23789 5.01306 8.21273 5.01306 10.6136C5.01306 13.0144 3.16558 14.9884 0.818191 15.1965V14.3541ZM23.1821 11.6161C22.9189 11.5092 22.7037 11.3011 22.5905 11.0276C22.362 10.4758 22.6252 9.84066 23.1761 9.61238C23.1783 9.61156 23.1802 9.61075 23.1818 9.60993V11.6161H23.1821ZM23.1821 8.7571C23.0741 8.7811 22.9674 8.81301 22.8635 8.85583C21.8951 9.25756 21.4336 10.3719 21.8348 11.3401C22.0759 11.9232 22.5832 12.3329 23.1821 12.4643V13.4636C21.786 13.264 20.7079 12.0631 20.7079 10.6128C20.7079 9.1621 21.786 7.96127 23.1821 7.76163V8.7571ZM23.1821 6.87144V6.93499C21.3332 7.13926 19.8897 8.71019 19.8897 10.6128C19.8897 12.5153 21.3332 14.0857 23.1821 14.2903V14.3535V15.196C20.8347 14.9879 18.9872 13.0133 18.9872 10.6125C18.9872 8.21164 20.8344 6.2368 23.1821 6.02871V6.87144ZM23.1821 5.21106C20.3833 5.42133 18.169 7.76109 18.169 10.613C18.169 13.444 20.3503 15.7715 23.1196 16.0115C22.9964 16.3115 22.7018 16.5234 22.3579 16.5234H1.64211C1.2982 16.5234 1.00365 16.3115 0.880374 16.0115C3.64968 15.7715 5.83098 13.444 5.83098 10.613C5.83098 7.76109 3.61668 5.42161 0.817918 5.21106V4.70242H23.1818V5.21106H23.1821ZM23.1821 3.88423H0.818191V1.64211C0.818191 1.18774 1.18774 0.818191 1.64211 0.818191H22.3579C22.8123 0.818191 23.1818 1.18774 23.1818 1.64211V3.88423H23.1821Z" fill="black"/>
</svg>
