<svg width="24" height="24" viewBox="0 0 24 24" fill="none" xmlns="http://www.w3.org/2000/svg">
<path d="M18.2 9.1999C20.0748 9.1999 21.6 7.6747 21.6 5.7999C21.6 3.9251 20.0748 2.3999 18.2 2.3999C16.3252 2.3999 14.8 3.9251 14.8 5.7999C14.8 7.6747 16.3252 9.1999 18.2 9.1999ZM18.2 3.1999C19.6336 3.1999 20.8 4.3663 20.8 5.7999C20.8 7.2335 19.6336 8.3999 18.2 8.3999C16.7664 8.3999 15.6 7.2335 15.6 5.7999C15.6 4.3663 16.7664 3.1999 18.2 3.1999Z" fill="black"/>
<path d="M18.2001 6.39988C18.5309 6.39988 18.8001 6.13068 18.8001 5.79988C18.8001 5.75508 18.7945 5.71188 18.7849 5.66988L19.5257 4.63228L18.8745 4.16748L18.1325 5.20668C17.8337 5.24068 17.6001 5.49228 17.6001 5.79988C17.6001 6.13068 17.8693 6.39988 18.2001 6.39988Z" fill="black"/>
<path d="M0.4 24H3.6C3.8208 24 4 23.8208 4 23.6V21.2C4 20.9792 3.8208 20.8 3.6 20.8H0.4C0.1792 20.8 0 20.9792 0 21.2V23.6C0 23.8208 0.1792 24 0.4 24ZM0.8 21.6H3.2V23.2H0.8V21.6Z" fill="black"/>
<path d="M7.20005 24H10.4C10.6208 24 10.8 23.8208 10.8 23.6V20.4C10.8 20.1792 10.6208 20 10.4 20H7.20005C6.97925 20 6.80005 20.1792 6.80005 20.4V23.6C6.80005 23.8208 6.97925 24 7.20005 24ZM7.60005 20.8H10V23.2H7.60005V20.8Z" fill="black"/>
<path d="M17.2001 23.9999C17.4209 23.9999 17.6001 23.8207 17.6001 23.5999V16.7999C17.6001 16.5791 17.4209 16.3999 17.2001 16.3999H14.0001C13.7793 16.3999 13.6001 16.5791 13.6001 16.7999V23.5999C13.6001 23.8207 13.7793 23.9999 14.0001 23.9999H17.2001ZM14.4001 17.1999H16.8001V23.1999H14.4001V17.1999Z" fill="black"/>
<path d="M20.4 12.8C20.1792 12.8 20 12.9792 20 13.2V23.6C20 23.8208 20.1792 24 20.4 24H23.6C23.8208 24 24 23.8208 24 23.6V13.2C24 12.9792 23.8208 12.8 23.6 12.8H20.4ZM23.2 23.2H20.8V13.6H23.2V23.2Z" fill="black"/>
<path d="M6.39995 16.5333C8.45835 16.5333 10.1331 14.8585 10.1331 12.8001C10.1331 10.7417 8.45835 9.06689 6.39995 9.06689C4.34155 9.06689 2.66675 10.7417 2.66675 12.8001C2.66675 14.8585 4.34155 16.5333 6.39995 16.5333ZM7.59995 15.4741C7.23315 15.6393 6.82755 15.7337 6.39995 15.7337C5.97235 15.7337 5.56675 15.6397 5.19995 15.4741V13.6049C5.19995 13.3817 5.38155 13.2001 5.60435 13.2001C5.75595 13.2001 5.89475 13.1141 5.96235 12.9785C6.02995 12.8425 6.01515 12.6801 5.92355 12.5593C5.86715 12.4841 5.79995 12.3613 5.79995 12.2001C5.79995 12.0141 5.88395 11.8417 6.03075 11.7269C6.17955 11.6101 6.36715 11.5721 6.55915 11.6197C6.74955 11.6669 6.91555 11.8265 6.97195 12.0169C7.04515 12.2625 6.96035 12.4473 6.87595 12.5585C6.78435 12.6797 6.76915 12.8417 6.83715 12.9777C6.90515 13.1141 7.04355 13.2001 7.19555 13.2001C7.41835 13.2001 7.59995 13.3817 7.59995 13.6045V15.4741ZM6.39995 9.86689C8.01715 9.86689 9.33315 11.1829 9.33315 12.8001C9.33315 13.6445 8.97235 14.4041 8.39995 14.9397V13.6045C8.39995 13.1429 8.13915 12.7413 7.75675 12.5389C7.81835 12.2969 7.81355 12.0389 7.73915 11.7889C7.60035 11.3221 7.22195 10.9597 6.75195 10.8433C6.32155 10.7369 5.87995 10.8289 5.53755 11.0969C5.19595 11.3645 4.99995 11.7665 4.99995 12.2001C4.99995 12.3157 5.01435 12.4293 5.04235 12.5397C4.66075 12.7417 4.39995 13.1433 4.39995 13.6045V14.9397C3.82715 14.4041 3.46675 13.6441 3.46675 12.8001C3.46675 11.1829 4.78275 9.86689 6.39995 9.86689Z" fill="black"/>
<path d="M0.2744 14.1819L1.406 14.5567L1.6284 15.0923L1.1504 16.0987C1.0884 16.2299 1.1016 16.3839 1.1856 16.5023C1.6024 17.0887 2.1112 17.5975 2.6976 18.0147C2.8156 18.0987 2.9696 18.1123 3.1012 18.0499L4.108 17.5719L4.6436 17.7943L5.0184 18.9259C5.072 19.0895 5.2252 19.1999 5.3976 19.1999H7.4024C7.5748 19.1999 7.728 19.0895 7.782 18.9255L8.1508 17.8119C8.3404 17.7455 8.5272 17.6679 8.7092 17.5795L9.6988 18.0495C9.83 18.1119 9.984 18.0983 10.1024 18.0143C10.6888 17.5975 11.1976 17.0887 11.6148 16.5023C11.6988 16.3843 11.7124 16.2299 11.65 16.0987L11.18 15.1087C11.268 14.9267 11.346 14.7399 11.4124 14.5503L12.526 14.1815C12.6896 14.1279 12.8 13.9747 12.8 13.8023V11.7975C12.8 11.6251 12.6896 11.4719 12.5256 11.4179L11.412 11.0491C11.3456 10.8595 11.268 10.6727 11.1796 10.4907L11.6496 9.5011C11.7116 9.3699 11.6984 9.2159 11.6144 9.0975C11.1976 8.5111 10.6888 8.0023 10.1024 7.5851C9.984 7.5007 9.83 7.4871 9.6988 7.5499L8.7088 8.0199C8.5268 7.9319 8.34 7.8539 8.1504 7.7875L7.7816 6.6739C7.728 6.5103 7.5748 6.3999 7.4024 6.3999H5.3976C5.2252 6.3999 5.072 6.5103 5.018 6.6743L4.6432 7.8059L4.108 8.0279L3.1012 7.5499C2.9708 7.4879 2.8164 7.5011 2.698 7.5851C2.1116 8.0019 1.6028 8.5107 1.1856 9.0971C1.1016 9.2151 1.088 9.3695 1.1504 9.5007L1.6284 10.5075L1.406 11.0431L0.2744 11.4179C0.1104 11.4719 0 11.6251 0 11.7975V13.8023C0 13.9747 0.1104 14.1279 0.2744 14.1819ZM0.8 12.0863L1.8308 11.7451C1.9408 11.7087 2.03 11.6259 2.0744 11.5187L2.4352 10.6499C2.4788 10.5455 2.476 10.4271 2.4272 10.3251L1.976 9.3751C2.266 9.0007 2.6008 8.6659 2.9752 8.3759L3.9256 8.8271C4.0276 8.8759 4.146 8.8783 4.2504 8.8355L5.1192 8.4751C5.2264 8.4307 5.3092 8.3415 5.3456 8.2315L5.6864 7.1999H7.1132L7.4544 8.2307C7.4952 8.3539 7.5932 8.4495 7.7172 8.4875C7.9908 8.5707 8.2592 8.6823 8.5148 8.8187C8.626 8.8783 8.7596 8.8811 8.8744 8.8271L9.8244 8.3759C10.1988 8.6659 10.5332 9.0007 10.8236 9.3751L10.3724 10.3251C10.318 10.4395 10.3212 10.5731 10.3808 10.6847C10.5168 10.9403 10.6284 11.2087 10.712 11.4823C10.75 11.6063 10.8456 11.7043 10.9688 11.7451L12 12.0863V13.5131L10.9692 13.8543C10.846 13.8951 10.7504 13.9931 10.7124 14.1171C10.6292 14.3907 10.5176 14.6591 10.3812 14.9147C10.3216 15.0263 10.3184 15.1599 10.3728 15.2743L10.824 16.2243C10.534 16.5987 10.1992 16.9331 9.8248 17.2235L8.8748 16.7723C8.76 16.7175 8.6264 16.7207 8.5152 16.7807C8.2596 16.9167 7.9912 17.0283 7.7176 17.1119C7.5936 17.1499 7.4956 17.2455 7.4548 17.3687L7.1136 18.3999H5.6868L5.3456 17.3691C5.3092 17.2591 5.2264 17.1699 5.1192 17.1255L4.2504 16.7647C4.146 16.7211 4.0276 16.7239 3.9256 16.7727L2.9756 17.2239C2.6012 16.9339 2.2668 16.5991 1.9764 16.2247L2.4276 15.2747C2.4764 15.1723 2.4792 15.0543 2.4356 14.9499L2.0748 14.0811C2.0304 13.9739 1.9416 13.8911 1.8312 13.8547L0.8 13.5135V12.0863Z" fill="black"/>
<path d="M13.8615 3.738L13.6751 4.1868L12.6743 4.5184C12.5103 4.5724 12.3999 4.7252 12.3999 4.898V6.702C12.3999 6.8744 12.5103 7.0276 12.6743 7.0816L13.6751 7.4132L13.8615 7.862L13.4387 8.752C13.3767 8.8832 13.3899 9.0372 13.4739 9.1556C13.8519 9.6872 14.3131 10.148 14.8443 10.526C14.9623 10.61 15.1163 10.6236 15.2479 10.5612L16.1211 10.1464C16.2755 10.2204 16.4327 10.286 16.5923 10.3424L16.9179 11.326C16.9723 11.4896 17.1251 11.6 17.2979 11.6H19.1023C19.2747 11.6 19.4279 11.4896 19.4819 11.3256L19.8075 10.342C19.9675 10.2852 20.1247 10.2196 20.2787 10.146L21.1519 10.5608C21.2835 10.6232 21.4371 10.61 21.5555 10.5256C22.0871 10.1476 22.5479 9.6864 22.9259 9.1552C23.0099 9.0372 23.0235 8.8828 22.9611 8.7516L22.5463 7.8784C22.6203 7.7244 22.6859 7.5672 22.7423 7.4072L23.7259 7.0816C23.8895 7.0276 23.9999 6.8744 23.9999 6.702V4.898C23.9999 4.7256 23.8895 4.5724 23.7255 4.5184L22.7419 4.1928C22.6851 4.0332 22.6199 3.8756 22.5459 3.7216L22.9607 2.8484C23.0227 2.7172 23.0095 2.5632 22.9255 2.4448C22.5475 1.9132 22.0863 1.4524 21.5551 1.0744C21.4367 0.9904 21.2827 0.9764 21.1515 1.0392L20.2783 1.454C20.1247 1.3804 19.9671 1.3148 19.8071 1.258L19.4815 0.2744C19.4275 0.1104 19.2747 0 19.1019 0H17.2975C17.1251 0 16.9719 0.1104 16.9179 0.2744L16.5863 1.2756L16.1375 1.4616L15.2475 1.0388C15.1167 0.9768 14.9623 0.9904 14.8439 1.074C14.3119 1.4524 13.8511 1.9132 13.4735 2.4444C13.3895 2.5624 13.3759 2.7168 13.4383 2.8476L13.8615 3.738ZM14.3439 4.6624L14.6687 3.8804C14.7119 3.776 14.7091 3.6576 14.6603 3.5556L14.2647 2.7224C14.5147 2.4028 14.8019 2.1156 15.1223 1.8648L15.9555 2.2604C16.0579 2.3092 16.1763 2.312 16.2803 2.2684L17.0623 1.9436C17.1695 1.8992 17.2523 1.8104 17.2887 1.7L17.5867 0.8H18.8131L19.1111 1.7004C19.1519 1.8236 19.2499 1.9192 19.3743 1.9572C19.6179 2.0316 19.8571 2.1308 20.0847 2.252C20.1959 2.3116 20.3291 2.3144 20.4443 2.2604L21.2771 1.8648C21.5971 2.1152 21.8843 2.4024 22.1347 2.7224L21.7391 3.5552C21.6847 3.6696 21.6879 3.8032 21.7475 3.9148C21.8691 4.1428 21.9683 4.3816 22.0423 4.6252C22.0803 4.7496 22.1759 4.8476 22.2991 4.8884L23.1999 5.1868V6.4132L22.2995 6.7116C22.1763 6.7524 22.0807 6.8504 22.0427 6.9748C21.9683 7.218 21.8691 7.4572 21.7475 7.6852C21.6883 7.7972 21.6851 7.9304 21.7391 8.0448L22.1347 8.8776C21.8847 9.1976 21.5971 9.4848 21.2771 9.7352L20.4443 9.3396C20.3291 9.2848 20.1955 9.288 20.0847 9.348C19.8571 9.4692 19.6179 9.5684 19.3743 9.6428C19.2499 9.6808 19.1519 9.7764 19.1111 9.8996L18.8131 10.8H17.5867L17.2887 9.8996C17.2479 9.7764 17.1499 9.6808 17.0255 9.6428C16.7835 9.5688 16.5439 9.4696 16.3147 9.3476C16.2027 9.288 16.0695 9.2852 15.9551 9.3392L15.1223 9.7348C14.8023 9.4848 14.5151 9.1972 14.2647 8.8772L14.6603 8.044C14.7091 7.9416 14.7119 7.8236 14.6683 7.7192L14.3435 6.9372C14.2991 6.83 14.2103 6.7472 14.0999 6.7108L13.1999 6.4132V5.1868L14.1003 4.8888C14.2103 4.852 14.2995 4.7696 14.3439 4.6624Z" fill="black"/>
<path d="M1.01198 6.02043L0.211914 6.44727L0.588474 7.15311L1.38854 6.72627L1.01198 6.02043Z" fill="black"/>
<path d="M2.18832 6.2996L11.4811 1.3436L10.8423 2.6212L11.5579 2.9792L12.7579 0.5792C12.8199 0.4552 12.8131 0.308 12.7403 0.19C12.6671 0.072 12.5387 0 12.3999 0H9.59992V0.8H10.7999L1.81152 5.5936L2.18832 6.2996Z" fill="black"/>
</svg>
