<svg width="24" height="22" viewBox="0 0 24 22" fill="none" xmlns="http://www.w3.org/2000/svg">
<path d="M22.5613 0H21.8451C21.561 0.00061557 21.2835 0.0852317 21.0474 0.243201C20.8113 0.401171 20.6272 0.625437 20.5183 0.88778C20.504 0.903555 20.4908 0.920261 20.4788 0.937787L10.4702 3.57765C10.3674 3.30254 10.1831 3.06534 9.94196 2.89777C9.70079 2.7302 9.41422 2.64023 9.12055 2.6399H3.60075C3.21898 2.64034 2.85298 2.79218 2.58303 3.06213C2.31308 3.33208 2.16123 3.69809 2.1608 4.07985V4.3221L1.86371 4.3228C0.243185 4.3228 0.000880926 6.80577 0.000880926 8.28585C-0.0103779 9.11914 0.086326 9.95037 0.28858 10.7588C0.683181 12.1821 1.42406 12.4809 1.97609 12.4809C2.022 12.4809 2.08556 12.4815 2.1608 12.4822V12.7195C2.1612 13.0597 2.28185 13.3888 2.50143 13.6487C2.72101 13.9086 3.02539 14.0824 3.36076 14.1396V18.2393C3.36076 19.0031 3.66417 19.7356 4.20426 20.2757C4.74434 20.8158 5.47686 21.1192 6.24065 21.1192C7.00445 21.1192 7.73696 20.8158 8.27704 20.2757C8.81713 19.7356 9.12055 19.0031 9.12055 18.2393V14.1595C9.41396 14.1591 9.7003 14.0693 9.94135 13.902C10.1824 13.7347 10.3667 13.4979 10.4696 13.2231L20.4928 15.8807C20.4991 15.8893 20.5063 15.8971 20.5131 15.9053C20.621 16.1698 20.8051 16.3962 21.0421 16.5558C21.279 16.7154 21.5581 16.8008 21.8438 16.8013H22.56C22.9418 16.8009 23.3078 16.649 23.5778 16.379C23.8477 16.1091 23.9996 15.7431 24 15.3613V1.43872C23.9996 1.05728 23.8479 0.691583 23.5781 0.421865C23.3084 0.152147 22.9427 0.000430031 22.5613 0ZM2.1608 11.5222C2.08756 11.5215 2.02152 11.5209 1.97609 11.5209C0.649944 11.5209 0.633188 5.28276 1.86597 5.28276L2.1608 5.28208V11.5222ZM8.16058 18.2393C8.16058 18.7485 7.9583 19.2369 7.59825 19.5969C7.23819 19.957 6.74985 20.1593 6.24065 20.1593C5.73145 20.1593 5.24311 19.957 4.88306 19.5969C4.523 19.2369 4.32072 18.7485 4.32072 18.2393V17.5194H8.16058V18.2393ZM8.16058 16.5594H4.32072V14.1595H8.16058V16.5594ZM9.60053 4.43984V12.7195C9.60053 12.8468 9.54996 12.9689 9.45994 13.0589C9.36993 13.1489 9.24784 13.1995 9.12055 13.1995H3.60022C3.53722 13.1995 3.47483 13.1871 3.41663 13.163C3.35843 13.1388 3.30555 13.1035 3.26103 13.0589C3.2165 13.0143 3.1812 12.9614 3.15713 12.9032C3.13306 12.8449 3.12071 12.7825 3.12077 12.7195V4.07985C3.12077 3.95255 3.17134 3.83047 3.26135 3.74045C3.35136 3.65044 3.47345 3.59987 3.60075 3.59987H9.12055C9.24784 3.59987 9.36993 3.65044 9.45994 3.74045C9.54996 3.83047 9.60053 3.95255 9.60053 4.07985V4.43984ZM20.4001 14.863L10.5605 12.2541V4.54662L20.4001 1.95132V14.863ZM23.04 15.3613C23.04 15.4243 23.0276 15.4867 23.0035 15.545C22.9794 15.6032 22.944 15.6561 22.8994 15.7007C22.8549 15.7453 22.8019 15.7807 22.7437 15.8048C22.6855 15.8289 22.623 15.8413 22.56 15.8413H21.8438C21.7809 15.8413 21.7186 15.8289 21.6606 15.8049C21.6025 15.7808 21.5497 15.7456 21.5052 15.7011C21.4608 15.6566 21.4255 15.6039 21.4015 15.5458C21.3774 15.4877 21.365 15.4254 21.365 15.3626V15.1189L21.3601 15.1176V1.69813L21.365 1.69683V1.44C21.365 1.37696 21.3774 1.31454 21.4016 1.2563C21.4257 1.19806 21.461 1.14514 21.5056 1.10056C21.5502 1.05599 21.6031 1.02063 21.6614 0.996503C21.7196 0.972379 21.782 0.959964 21.8451 0.959965H22.5613C22.6242 0.959964 22.6864 0.972347 22.7445 0.996407C22.8026 1.02047 22.8554 1.05573 22.8998 1.10019C22.9443 1.14464 22.9795 1.19742 23.0036 1.25551C23.0277 1.31359 23.04 1.37585 23.04 1.43872V15.3613Z" fill="black"/>
</svg>
