<svg width="24" height="27" viewBox="0 0 24 27" fill="none" xmlns="http://www.w3.org/2000/svg">
<path d="M21.1923 24.4243H2.59141C2.35484 24.4243 2.16284 24.2323 2.16284 23.9958V21.8488C2.16284 21.6123 2.35484 21.4203 2.59141 21.4203C2.82798 21.4203 3.01998 21.6123 3.01998 21.8488V23.5672H20.7637V3.00412H19.0293C18.7927 3.00412 18.6007 2.81212 18.6007 2.57554C18.6007 2.33897 18.7927 2.14697 19.0293 2.14697H21.1923C21.4288 2.14697 21.6208 2.33897 21.6208 2.57554V23.9958C21.6208 24.2325 21.4291 24.4243 21.1923 24.4243Z" fill="black"/>
<path d="M23.5714 26.5715H4.97056C4.73399 26.5715 4.54199 26.3795 4.54199 26.143V23.9958C4.54199 23.7593 4.73399 23.5673 4.97056 23.5673C5.20714 23.5673 5.39914 23.7593 5.39914 23.9958V25.7144H23.1428V5.15133H21.1922C20.9556 5.15133 20.7636 4.95933 20.7636 4.72276C20.7636 4.48619 20.9556 4.29419 21.1922 4.29419H23.5714C23.808 4.29419 24 4.48619 24 4.72276V26.143C24 26.3795 23.808 26.5715 23.5714 26.5715Z" fill="black"/>
<path d="M19.0294 22.2774H0.428571C0.192 22.2774 0 22.0854 0 21.8488V0.428571C0 0.192 0.192 0 0.428571 0H19.0294C19.266 0 19.458 0.192 19.458 0.428571V21.8488C19.458 22.0856 19.266 22.2774 19.0294 22.2774ZM0.857143 21.4202H18.6009V0.857143H0.857143V21.4202Z" fill="black"/>
<path d="M6.33476 12.5066C3.87883 12.5066 1.88062 10.5701 1.88062 8.18983C1.88062 5.80955 3.87862 3.87305 6.33476 3.87305C8.79069 3.87305 10.7887 5.80955 10.7887 8.18983C10.7887 10.5701 8.79069 12.5066 6.33476 12.5066ZM6.33476 4.73019C4.35133 4.73019 2.73776 6.28226 2.73776 8.18983C2.73776 10.0974 4.35133 11.6495 6.33476 11.6495C8.31797 11.6495 9.93154 10.0974 9.93154 8.18983C9.93154 6.28226 8.31819 4.73019 6.33476 4.73019Z" fill="black"/>
<path d="M6.33458 8.6184C6.27822 8.6184 6.22122 8.60726 6.16722 8.58433C6.00886 8.51726 5.90601 8.3619 5.90601 8.18983V4.30162C5.90601 4.06505 6.09801 3.87305 6.33458 3.87305C6.57115 3.87305 6.76315 4.06505 6.76315 4.30162V7.18012L8.88329 5.1324C9.05322 4.96783 9.32472 4.97255 9.48929 5.1429C9.65386 5.31305 9.64915 5.58455 9.47879 5.7489L6.63243 8.49819C6.55101 8.57683 6.44365 8.6184 6.33458 8.6184Z" fill="black"/>
<path d="M9.18122 11.3679C9.07407 11.3679 8.96672 11.3278 8.88336 11.2474L6.037 8.49814C5.86686 8.33357 5.86215 8.06229 6.0265 7.89214C6.19107 7.72179 6.46236 7.71707 6.6325 7.88164L9.47886 10.6311C9.649 10.7957 9.65372 11.067 9.48936 11.2371C9.40536 11.3241 9.29329 11.3679 9.18122 11.3679Z" fill="black"/>
<path d="M17.1485 13.8281H12.9359C12.6993 13.8281 12.5073 13.6361 12.5073 13.3996V9.46055C12.5073 9.22398 12.6993 9.03198 12.9359 9.03198H17.1485C17.3851 9.03198 17.5771 9.22398 17.5771 9.46055V13.3996C17.5771 13.6363 17.3851 13.8281 17.1485 13.8281ZM13.3645 12.971H16.72V9.88913H13.3645V12.971Z" fill="black"/>
<path d="M14.741 12.4223C14.639 12.4223 14.5372 12.3861 14.456 12.3139L13.823 11.7503C13.6462 11.5928 13.6306 11.322 13.7879 11.1452C13.9456 10.9684 14.2164 10.953 14.393 11.11L14.741 11.4199L15.7218 10.5462C15.8984 10.389 16.169 10.4044 16.3269 10.5814C16.4842 10.7582 16.4688 11.029 16.2918 11.1865L15.026 12.3139C14.9448 12.3861 14.8428 12.4223 14.741 12.4223Z" fill="black"/>
<path d="M17.1485 7.3479H12.9359C12.6993 7.3479 12.5073 7.1559 12.5073 6.91933V2.98033C12.5073 2.74376 12.6993 2.55176 12.9359 2.55176H17.1485C17.3851 2.55176 17.5771 2.74376 17.5771 2.98033V6.91933C17.5771 7.1559 17.3851 7.3479 17.1485 7.3479ZM13.3645 6.49076H16.72V3.4089H13.3645V6.49076Z" fill="black"/>
<path d="M14.741 5.94193C14.639 5.94193 14.5372 5.90572 14.456 5.83351L13.823 5.26994C13.6462 5.11243 13.6306 4.84158 13.7879 4.66479C13.9456 4.48801 14.2164 4.47258 14.393 4.62965L14.741 4.93951L15.7218 4.06586C15.8984 3.90836 16.169 3.92401 16.3269 4.10101C16.4842 4.27779 16.4688 4.54865 16.2918 4.70615L15.026 5.83351C14.9448 5.90572 14.8428 5.94193 14.741 5.94193Z" fill="black"/>
<path d="M17.1485 19.726H2.30919C2.07262 19.726 1.88062 19.534 1.88062 19.2975C1.88062 19.0609 2.07262 18.8689 2.30919 18.8689H17.1485C17.385 18.8689 17.577 19.0609 17.577 19.2975C17.577 19.534 17.385 19.726 17.1485 19.726Z" fill="black"/>
<path d="M17.1485 16.9177H2.30919C2.07262 16.9177 1.88062 16.7257 1.88062 16.4891C1.88062 16.2525 2.07262 16.0605 2.30919 16.0605H17.1485C17.385 16.0605 17.577 16.2525 17.577 16.4891C17.577 16.7257 17.385 16.9177 17.1485 16.9177Z" fill="black"/>
</svg>
