<svg width="24" height="17" viewBox="0 0 24 17" fill="none" xmlns="http://www.w3.org/2000/svg">
<path d="M23.6 12.8H22.4V0.8C22.4 0.3588 22.0412 0 21.6 0H2.4C1.9588 0 1.6 0.3588 1.6 0.8V12.8H0.4C0.1792 12.8 0 12.9792 0 13.2C0 15.1848 1.6152 16.8 3.6 16.8H20.4C22.3848 16.8 24 15.1848 24 13.2C24 12.9792 23.8208 12.8 23.6 12.8ZM21.6 12.8H20.8V2C20.8 1.7792 20.6208 1.6 20.4 1.6H17.61V2.4H20V5.6H18.77C18.1148 3.9136 16.5028 2.8 14.6704 2.8C13.1084 2.8 11.6496 3.6428 10.8636 4.9996C10.792 5.1236 10.7916 5.276 10.8632 5.4C10.9348 5.5236 11.0672 5.6 11.21 5.6H14.81V4.8H11.9924C12.6688 4.0468 13.6424 3.6 14.6704 3.6C16.2512 3.6 17.6316 4.6128 18.1048 6.12C18.1572 6.2868 18.3116 6.4 18.4864 6.4H19.9996V8H18.4864C18.3116 8 18.1572 8.1136 18.1048 8.28C17.6312 9.7872 16.2512 10.8 14.6704 10.8C13.6424 10.8 12.6688 10.3532 11.9924 9.6H14.81C14.9376 9.6 15.0576 9.5392 15.1332 9.436L16.5936 7.436C16.696 7.2952 16.696 7.1048 16.5936 6.964L15.6604 5.686L15.0144 6.158L15.7752 7.2L14.6068 8.8H11.21C11.0672 8.8 10.9348 8.8764 10.8636 9C10.792 9.124 10.7924 9.2764 10.864 9.4004C11.65 10.7572 13.1088 11.6 14.6704 11.6C16.5028 11.6 18.1148 10.4864 18.77 8.8H19.9996V12.8H5.9028L6.1468 11.6384C6.156 11.5952 6.1848 11.5752 6.2076 11.566C6.2308 11.5572 6.2648 11.5516 6.3016 11.5764L7.6832 12.5288C7.8424 12.6384 8.0568 12.6188 8.1928 12.4824L9.6928 10.9824C9.8292 10.846 9.8488 10.6316 9.7392 10.4728L8.7872 9.0916C8.762 9.0548 8.7676 9.02 8.7768 8.9976C8.7856 8.9748 8.8056 8.946 8.8488 8.9368L10.4924 8.5912C10.6772 8.5524 10.81 8.3892 10.81 8.2V6.2C10.81 6.0108 10.6772 5.8476 10.4924 5.8084L8.8488 5.4628C8.8056 5.4536 8.7856 5.4248 8.7768 5.402C8.7676 5.3792 8.762 5.3444 8.7872 5.308L9.7396 3.9264C9.8492 3.7676 9.8296 3.5532 9.6932 3.4168L8.1932 1.9168C8.0572 1.7808 7.8428 1.7608 7.6836 1.8704L6.3024 2.8224C6.266 2.8476 6.2316 2.8424 6.2084 2.8328C6.1856 2.824 6.1568 2.804 6.1476 2.7608L5.802 1.1172C5.7632 0.9324 5.6004 0.8 5.4116 0.7996H21.6004V12.8H21.6ZM2.4 0.8H3.61V1.6H5.0852L5.364 2.9256C5.426 3.2208 5.6304 3.464 5.9104 3.576C6.1908 3.688 6.5068 3.6524 6.7552 3.4812L7.8624 2.718L8.8912 3.7468L8.1276 4.8544C7.9564 5.1032 7.9212 5.4188 8.0332 5.6992C8.1452 5.9792 8.3884 6.1836 8.6836 6.2456L10.01 6.5248V7.8756L8.6844 8.1544C8.3892 8.2164 8.146 8.4208 8.034 8.7008C7.922 8.9812 7.9576 9.2968 8.1288 9.5456L8.892 10.6528L7.8632 11.6816L6.756 10.9184C6.5076 10.7472 6.192 10.7112 5.9112 10.8236C5.6308 10.9356 5.4264 11.1788 5.3644 11.4744L5.0852 12.8H3.9996V9.9652C4.1352 9.9852 4.2716 10 4.41 10C5.4064 10 6.3356 9.4636 6.8352 8.6004L6.1428 8.1996C5.7856 8.8168 5.1216 9.2 4.41 9.2C4.2708 9.2 4.1344 9.1812 4 9.1532V5.2444C4.5156 5.1384 5.0724 5.2384 5.5156 5.5332L5.9584 4.8672C5.384 4.4856 4.6756 4.3388 4 4.4356V2H3.2V12.8H2.4V0.8ZM20.4 16H3.6C2.1916 16 1.0232 14.9552 0.8284 13.6H23.1712C22.9768 14.9552 21.808 16 20.4 16Z" fill="black"/>
<path d="M18 14.3999H6V15.1999H18V14.3999Z" fill="black"/>
<path d="M7.21002 7.19996C7.21002 6.70756 7.08042 6.22316 6.83482 5.79956L6.14282 6.20036C6.31762 6.50236 6.41002 6.84796 6.41002 7.19996H7.21002Z" fill="black"/>
</svg>
